<?xml version="1.0" encoding="utf-8"?>
<!-- Generator: Adobe Illustrator 23.0.1, SVG Export Plug-In . SVG Version: 6.00 Build 0)  -->
<svg version="1.1" id="Layer_1" xmlns="http://www.w3.org/2000/svg" xmlns:xlink="http://www.w3.org/1999/xlink" x="0px" y="0px"
	 viewBox="0 0 529 119.1" style="enable-background:new 0 0 529 119.1;" xml:space="preserve">
<style type="text/css">
	.st0{fill:#F38020;}
</style>
<title>Asset 4</title>
<g>
	<g id="Deposco_Logo_Set">
		<g id="Deposco_Primary_Logo">
			<g id="Pantone_716C">
				<path class="st0" d="M20,89c-2.1-0.1-4.2,0.2-6.2,0.9c-1.9,0.7-3.7,1.7-5.2,3c-1.5,1.3-2.7,2.9-3.6,4.7c-0.9,1.9-1.3,3.9-1.2,6
					c0.1,2.1,0.6,4.2,1.6,6.2c1,1.9,2.4,3.6,4,5c3.4,2.9,7.8,4.5,12.3,4.4c2.2,0,4.3-0.5,6.3-1.3c1.8-0.8,3.5-2,4.8-3.4
					c1.3-1.4,2.3-3,3-4.8c0.7-1.8,0.9-3.8,0.7-5.7c-0.2-2-0.7-3.9-1.6-5.6c-0.9-1.7-2.1-3.3-3.6-4.6c-1.5-1.4-3.2-2.5-5.1-3.2
					C24.2,89.5,22.1,89.1,20,89"/>
				<path class="st0" d="M13.5,50.5c-1.7-0.2-3.5-0.2-5.2,0.2c-1.5,0.3-3,1-4.3,1.9c-1.2,0.9-2.3,2-3,3.3c-0.7,1.4-1.1,2.9-1,4.5
					c0.1,1.7,0.5,3.3,1.3,4.8c0.8,1.6,1.9,3,3.2,4.1c1.4,1.2,2.9,2.3,4.6,3c1.8,0.8,3.6,1.2,5.5,1.4c1.8,0.1,3.6,0,5.3-0.5
					c1.5-0.4,2.9-1.2,4.1-2.2c1.1-0.9,2-2.1,2.6-3.4c0.6-1.4,0.8-2.8,0.7-4.3c-0.1-1.6-0.6-3.1-1.4-4.5c-0.8-1.4-1.8-2.7-3-3.8
					c-1.3-1.2-2.7-2.1-4.2-2.9C17.1,51.2,15.3,50.7,13.5,50.5"/>
				<path class="st0" d="M24.5,20.6c-1.3-0.3-2.7-0.3-4-0.2c-1.1,0.1-2.3,0.5-3.2,1.1c-1.9,1.2-3,3.3-2.8,5.5c0.1,1.2,0.4,2.5,1,3.6
					c0.7,1.2,1.5,2.3,2.5,3.2c1.1,1,2.3,1.8,3.5,2.5c1.3,0.7,2.7,1.1,4.2,1.4c1.3,0.2,2.7,0.2,4,0c1.1-0.2,2.2-0.6,3.1-1.3
					c0.8-0.6,1.5-1.4,1.9-2.3c0.4-1,0.6-2.1,0.5-3.1c-0.1-1.2-0.5-2.3-1.1-3.4c-0.6-1.1-1.4-2.1-2.4-3c-1-1-2.1-1.8-3.3-2.5
					C27.2,21.3,25.9,20.8,24.5,20.6"/>
				<path class="st0" d="M46.8,4c-0.9-0.2-1.8-0.3-2.8-0.2c-0.8,0.1-1.6,0.3-2.2,0.7c-0.6,0.4-1.1,0.9-1.4,1.5
					C40,6.7,39.9,7.5,40,8.3c0.1,0.9,0.4,1.8,0.8,2.6c0.5,0.9,1.1,1.7,1.9,2.4c0.8,0.7,1.6,1.4,2.6,1.9c0.9,0.5,1.9,0.9,3,1.2
					c0.9,0.2,1.8,0.3,2.7,0.1c0.8-0.1,1.5-0.4,2.1-0.8c0.6-0.4,1-1,1.3-1.6c0.3-0.7,0.4-1.5,0.2-2.2c-0.1-0.9-0.4-1.7-0.9-2.5
					c-0.5-0.8-1.1-1.6-1.8-2.3c-0.7-0.7-1.6-1.3-2.4-1.9C48.7,4.7,47.8,4.3,46.8,4"/>
				<path class="st0" d="M73.9,0.2C73.2,0,72.5,0,71.9,0c-0.6,0-1.1,0.2-1.6,0.5c-0.4,0.3-0.7,0.7-0.9,1.2c-0.2,0.6-0.2,1.2-0.1,1.8
					c0.1,0.7,0.4,1.4,0.7,2c0.4,0.7,0.9,1.3,1.4,1.8c0.6,0.6,1.2,1.1,1.9,1.5c0.7,0.4,1.4,0.7,2.2,0.9c0.6,0.2,1.3,0.2,2,0.2
					C78,9.8,78.5,9.6,79,9.3c0.4-0.3,0.7-0.7,0.8-1.2c0.2-0.6,0.2-1.1,0.1-1.7c-0.1-0.7-0.4-1.3-0.7-1.9c-0.4-0.7-0.8-1.3-1.4-1.8
					c-0.6-0.6-1.2-1-1.8-1.4C75.3,0.8,74.6,0.4,73.9,0.2"/>
				<path class="st0" d="M101,6.6c-0.5-0.2-1.1-0.2-1.6-0.2c-0.4,0-0.9,0.2-1.2,0.5c-0.3,0.3-0.6,0.7-0.7,1.1c-0.1,0.5-0.1,1,0,1.5
					c0.1,0.6,0.4,1.2,0.7,1.7c0.3,0.6,0.8,1.1,1.2,1.6c0.5,0.5,1,0.9,1.6,1.3c0.5,0.3,1.1,0.6,1.8,0.8c0.5,0.2,1.1,0.2,1.6,0.1
					c0.9-0.1,1.6-0.8,1.8-1.6c0.1-0.5,0.1-1,0-1.5c-0.1-0.6-0.4-1.2-0.7-1.7c-0.3-0.6-0.7-1.1-1.2-1.6c-0.5-0.5-1-0.9-1.5-1.3
					C102.2,7,101.6,6.8,101,6.6"/>
				<path class="st0" d="M125.5,21c-0.4-0.1-0.9-0.1-1.3,0c-0.4,0.1-0.7,0.2-0.9,0.5c-0.3,0.3-0.4,0.6-0.5,1c-0.1,0.5,0,0.9,0.1,1.4
					c0.1,0.5,0.4,1.1,0.7,1.5c0.3,0.5,0.7,1,1.1,1.4c0.4,0.4,0.8,0.8,1.3,1.1c0.4,0.3,0.9,0.5,1.4,0.6c0.4,0.1,0.9,0.1,1.3,0
					c0.3-0.1,0.7-0.3,0.9-0.5c0.2-0.3,0.4-0.6,0.4-1c0.1-0.5,0-0.9-0.1-1.4c-0.1-0.5-0.4-1-0.6-1.5c-0.3-0.5-0.6-0.9-1-1.4
					c-0.4-0.4-0.8-0.8-1.3-1.1C126.6,21.4,126.1,21.1,125.5,21"/>
			</g>
			<g id="Pantone_533C">
				<path d="M104,41H60v11.4h39.8c3.6,0,4.2,2.7,4.2,3.7v22.5c0,2.2-1.8,3.9-3.9,3.9c-0.1,0-0.2,0-0.3,0H75.6V61H60v33h44.9
					c6.4-0.1,14.2-0.9,14.7-10.5l0,0l0.1-31C119.6,41.5,110.8,41,104,41"/>
				<path d="M234.6,41h-41.8v53h14.9V75.3h27c6.4,0,14.9-0.4,14.9-11.4V52.4C249.4,41.4,241,41,234.6,41 M207.6,63.7V52.4h22.9
					c2.1-0.1,3.9,1.5,4,3.6c0,0.1,0,0.2,0,0.3v3.5c0.1,2.1-1.5,3.9-3.6,4c-0.1,0-0.3,0-0.4,0L207.6,63.7z"/>
				<path d="M383.1,52.4V41h-42.8c-6.4,0-14.9,0.4-14.9,11.4v9.2c0,11,8.5,11.4,14.9,11.4h23.9c2-0.2,3.9,1.3,4,3.4
					c0,0.1,0,0.3,0,0.4v1.8c0,2.1-1.6,3.8-3.7,3.8c-0.1,0-0.2,0-0.3,0h-38.8V94h42.8c6.4,0,14.9-0.4,14.9-11.4V72.3
					c0.2-2.8-0.8-5.5-2.7-7.5c-1.8-1.8-4.5-2.9-8.1-3.1h-28c-2.1,0.1-3.8-1.4-4-3.5c0-0.1,0-0.2,0-0.3v-1.8c0-2.1,1.7-3.7,3.8-3.7
					c0.1,0,0.1,0,0.2,0L383.1,52.4z"/>
				<path d="M146.6,52.4h37.9V41h-41.8c-6.4,0-14.8,0.4-14.8,11.4v30.1c0,10.8,8.2,11.4,14.6,11.4h42.1V82.6h-37.8
					c-2.1,0.1-3.9-1.5-4-3.7c0-0.1,0-0.2,0-0.3v-5.2H176V62h-33.2v-5.6c-0.1-2.1,1.5-3.9,3.7-4C146.4,52.4,146.5,52.4,146.6,52.4"/>
				<path d="M302.4,41h-29.9c-6.4,0-14.9,0.4-14.9,11.4h40.9c2.1,0,3.9,1.6,3.9,3.8c0,0.1,0,0.2,0,0.2v22.1c0.1,2.1-1.6,3.9-3.7,4
					c-0.1,0-0.2,0-0.3,0h-21.8c-2.1,0.1-3.9-1.6-4-3.7c0-0.1,0-0.2,0-0.3V61h-14.9v21.6l0,0c0,11,8.5,11.4,14.8,11.4h29.9
					c6.4,0,14.9-0.4,14.9-11.4V52.4C317.2,41.4,308.8,41,302.4,41"/>
				<path d="M410.1,52.4H448V41h-41.9c-6.4,0-14.8,0.4-14.8,11.4v30.1c0,11,8.4,11.4,14.8,11.4H448V82.6h-37.8
					c-2.1,0.1-3.9-1.5-4-3.6c0,0,0-0.1,0-0.1V56.1C406.2,54,408,52.4,410.1,52.4C410.1,52.4,410.1,52.4,410.1,52.4"/>
				<path d="M501,41h-30c-6.4,0-14.9,0.4-14.9,11.4H497c2.1,0,3.9,1.6,3.9,3.7c0,0.1,0,0.2,0,0.3v22.1c0.1,2.1-1.6,3.9-3.7,4
					c-0.1,0-0.2,0-0.3,0h-21.9c-2.1,0.1-3.9-1.6-4-3.7c0-0.1,0-0.2,0-0.3V61h-14.9v21.6c0,11,8.5,11.4,14.9,11.4H501
					c6.4,0,14.9-0.4,14.9-11.4V52.4C515.9,41.4,507.4,41,501,41"/>
				<path d="M524,89.4v0.8h-1.4V94h-1v-3.8h-1.4v-0.8H524z"/>
				<path d="M527.6,89.4h1.4V94h-0.9v-3.9l-0.9,3.9h-0.9l-0.9-3.8v0.4c0,0.2,0,0.3,0,0.4V94h-0.9v-4.6h1.4l0.8,3.6L527.6,89.4z"/>
			</g>
		</g>
	</g>
</g>
</svg>
