<svg xmlns="http://www.w3.org/2000/svg" viewBox="0 0 528.98 119.13"><defs><style>.cls-1{fill:#f38020;}.cls-2{fill:#fff;}</style></defs><title>Asset 5</title><g id="Layer_2" data-name="Layer 2"><g id="Deposco_Logo_Set" data-name="Deposco Logo Set"><g id="Deposco_Primary_Logo" data-name="Deposco Primary Logo"><g id="Pantone_716C" data-name="Pantone 716C"><path class="cls-1" d="M20,89a16.86,16.86,0,0,0-6.25.88,15.44,15.44,0,0,0-5.19,3A14,14,0,0,0,5,97.54a13.48,13.48,0,0,0-1.19,6,14.79,14.79,0,0,0,1.58,6.15,16.63,16.63,0,0,0,4,5,18.16,18.16,0,0,0,12.31,4.39A16.8,16.8,0,0,0,28,117.73a14.89,14.89,0,0,0,4.84-3.4,13.73,13.73,0,0,0,3-4.8,13.58,13.58,0,0,0,.74-5.72,15,15,0,0,0-1.64-5.63,16.94,16.94,0,0,0-3.61-4.62,17.93,17.93,0,0,0-5.12-3.23A18.2,18.2,0,0,0,20,89"/><path class="cls-1" d="M13.53,50.45a15.14,15.14,0,0,0-5.24.21A11.92,11.92,0,0,0,4,52.55,9.65,9.65,0,0,0,1,55.89a9.06,9.06,0,0,0-1,4.49,11.36,11.36,0,0,0,1.27,4.79A14.75,14.75,0,0,0,4.51,69.3a17.12,17.12,0,0,0,4.65,3,17.3,17.3,0,0,0,5.52,1.38,14.68,14.68,0,0,0,5.3-.53A11.37,11.37,0,0,0,24.09,71a9.43,9.43,0,0,0,2.57-3.43,9.25,9.25,0,0,0,.7-4.32A11.36,11.36,0,0,0,26,58.73a14.63,14.63,0,0,0-3-3.85A16.83,16.83,0,0,0,18.75,52a17.24,17.24,0,0,0-5.22-1.54"/><path class="cls-1" d="M24.51,20.57a11.83,11.83,0,0,0-4-.16,8.11,8.11,0,0,0-3.24,1.14A5.89,5.89,0,0,0,14.47,27a8.6,8.6,0,0,0,1,3.57A12.56,12.56,0,0,0,18,33.82a14.92,14.92,0,0,0,3.55,2.47,14.22,14.22,0,0,0,4.19,1.37,10.86,10.86,0,0,0,4,0,7.57,7.57,0,0,0,3.1-1.31A5.87,5.87,0,0,0,34.76,34a6.38,6.38,0,0,0,.49-3.15,8.84,8.84,0,0,0-1.07-3.38,12.48,12.48,0,0,0-2.35-3A15.3,15.3,0,0,0,28.5,22a14.41,14.41,0,0,0-4-1.44"/><path class="cls-1" d="M46.78,4A8.16,8.16,0,0,0,44,3.75a5.33,5.33,0,0,0-2.24.71A3.78,3.78,0,0,0,40.33,6,4.22,4.22,0,0,0,40,8.3a7,7,0,0,0,.85,2.6,10.58,10.58,0,0,0,1.86,2.39,12.2,12.2,0,0,0,2.56,1.91,11.09,11.09,0,0,0,3,1.15A7.81,7.81,0,0,0,51,16.5a4.91,4.91,0,0,0,2.14-.81,3.72,3.72,0,0,0,1.3-1.61,4.46,4.46,0,0,0,.25-2.25,7,7,0,0,0-.86-2.49,10.58,10.58,0,0,0-1.77-2.29,12.11,12.11,0,0,0-2.44-1.86A10.75,10.75,0,0,0,46.78,4"/><path class="cls-1" d="M73.87.23a5.6,5.6,0,0,0-2-.21,3.25,3.25,0,0,0-1.55.53,2.51,2.51,0,0,0-.92,1.18,3.56,3.56,0,0,0-.13,1.75,6.12,6.12,0,0,0,.73,2A8.73,8.73,0,0,0,71.41,7.3,9.73,9.73,0,0,0,73.3,8.78a8.17,8.17,0,0,0,2.16.92,5.08,5.08,0,0,0,2,.16A3.13,3.13,0,0,0,79,9.28a2.46,2.46,0,0,0,.85-1.21,3.47,3.47,0,0,0,.09-1.72,5.93,5.93,0,0,0-.73-1.93,8.88,8.88,0,0,0-1.37-1.79A10.24,10.24,0,0,0,76,1.18,8.46,8.46,0,0,0,73.87.23"/><path class="cls-1" d="M101,6.58a4.12,4.12,0,0,0-1.63-.15,2.25,2.25,0,0,0-1.19.5A2,2,0,0,0,97.53,8a3.32,3.32,0,0,0,0,1.54,5.9,5.9,0,0,0,.69,1.74,8.8,8.8,0,0,0,1.22,1.6A8.84,8.84,0,0,0,101,14.15a6.6,6.6,0,0,0,1.77.79,3.79,3.79,0,0,0,1.61.11,2.09,2.09,0,0,0,1.78-1.62,3.62,3.62,0,0,0,0-1.53,6.14,6.14,0,0,0-.69-1.7,7.79,7.79,0,0,0-1.2-1.57,8.08,8.08,0,0,0-1.54-1.26A6.87,6.87,0,0,0,101,6.58"/><path class="cls-1" d="M125.54,21a2.69,2.69,0,0,0-1.28-.05,1.59,1.59,0,0,0-.91.51,1.86,1.86,0,0,0-.46,1,3.46,3.46,0,0,0,.09,1.37,5.82,5.82,0,0,0,.65,1.53,7.35,7.35,0,0,0,1.06,1.38A6.77,6.77,0,0,0,126,27.87a4.94,4.94,0,0,0,1.44.63,2.76,2.76,0,0,0,1.27,0,1.71,1.71,0,0,0,.9-.53,2,2,0,0,0,.44-1,3.54,3.54,0,0,0-.1-1.38,6.21,6.21,0,0,0-.65-1.51,8,8,0,0,0-1-1.36,7.68,7.68,0,0,0-1.3-1.08,5.47,5.47,0,0,0-1.43-.64"/></g><g id="Pantone_White" data-name="Pantone White"><path class="cls-2" d="M104,41H60V52.44H99.78c3.59,0,4.24,2.66,4.24,3.69V78.66a3.91,3.91,0,0,1-4.25,3.89H75.63V61H60V94h44.93c6.41-.06,14.21-.9,14.65-10.54h0l.06-31c0-11-8.87-11.42-15.63-11.42"/><path class="cls-2" d="M234.56,41H192.73V94h14.85V75.31h27c6.42,0,14.85-.44,14.85-11.42V52.43c0-11-8.43-11.41-14.85-11.41m-27,22.72V52.43l22.95,0a3.79,3.79,0,0,1,4,3.83v3.45a3.81,3.81,0,0,1-4,4Z"/><path class="cls-2" d="M383.12,52.43V41H340.3c-6.41,0-14.87.43-14.87,11.41v9.22c0,11,8.46,11.41,14.87,11.41l23.91,0a3.72,3.72,0,0,1,4.05,3.77v1.84a3.79,3.79,0,0,1-4.05,3.84H325.43V94h42.82c6.43,0,14.87-.44,14.87-11.42V72.28a10.26,10.26,0,0,0-2.69-7.51c-1.79-1.83-4.51-2.87-8.08-3.07l-28,0a3.73,3.73,0,0,1-4-3.74V56.12a3.73,3.73,0,0,1,4-3.67Z"/><path class="cls-2" d="M146.61,52.44h37.92V41H142.7c-6.43,0-14.85.44-14.85,11.42V82.55c0,10.83,8.23,11.39,14.6,11.4h42.08V82.55H146.74a3.83,3.83,0,0,1-4-4V73.38h33.21V62H142.71V56.42a3.83,3.83,0,0,1,3.9-4"/><path class="cls-2" d="M302.38,41H272.46c-6.41,0-14.85.44-14.85,11.42h40.87a3.83,3.83,0,0,1,3.9,4V78.54a3.84,3.84,0,0,1-4,4H276.53a3.84,3.84,0,0,1-4-4l0-17.54H257.61V82.55h0c0,11,8.45,11.4,14.84,11.4h29.92c6.44,0,14.87-.44,14.87-11.4V52.44c0-11-8.43-11.42-14.87-11.42"/><path class="cls-2" d="M410.13,52.44H448V41H406.15c-6.41,0-14.84.44-14.84,11.42V82.55c0,11,8.43,11.4,14.84,11.4H448V82.55H410.19a3.78,3.78,0,0,1-4-3.67V56.12a3.78,3.78,0,0,1,4-3.68"/><path class="cls-2" d="M501,41H471.05c-6.42,0-14.87.44-14.87,11.42h40.87a3.83,3.83,0,0,1,3.91,4V78.54a3.84,3.84,0,0,1-4,4H475.1a3.86,3.86,0,0,1-4-4V61H456.18V82.55c0,11,8.45,11.4,14.88,11.4H501c6.43,0,14.86-.44,14.86-11.4V52.44c0-11-8.43-11.42-14.86-11.42"/><path class="cls-2" d="M524,89.39v.81h-1.37V94h-1V90.2h-1.37v-.81Z"/><path class="cls-2" d="M527.61,89.39H529V94h-.89V90.13L527.23,94h-.92l-.86-3.82v.36c0,.17,0,.29,0,.38V94h-.89V89.39H526l.83,3.59Z"/></g></g></g></g></svg>